<?xml version="1.0" encoding="utf-8"?>
<!-- Generator: Adobe Illustrator 22.0.1, SVG Export Plug-In . SVG Version: 6.00 Build 0)  -->
<svg version="1.1" id="Livello_1" xmlns="http://www.w3.org/2000/svg" xmlns:xlink="http://www.w3.org/1999/xlink" x="0px" y="0px"
	 viewBox="0 0 128 128" style="enable-background:new 0 0 128 128;" xml:space="preserve">
<path d="M99.1,73.1h-8V55h8c7.2,0,13.7-2.9,18.5-7.5c5-4.8,8.1-11.6,8.1-19.1c0-6.9-2.6-13.1-6.9-17.8c-4.9-5.4-11.9-8.7-19.7-8.7
	C90.5,1.8,82.8,6,78,12.3c-3.4,4.5-5.4,10-5.4,16.1v8H54.4v-8c0-7.3-3-14-7.8-18.8S35.2,1.8,27.9,1.8c-7.9,0-15,3.5-19.9,9
	c-4.1,4.7-6.6,10.8-6.6,17.6c0,7.3,3,14,7.8,18.8s11.4,7.8,18.8,7.8h8V73h-8C19,73,11.1,77.4,6.3,84.1c-3.1,4.4-5,9.7-5,15.5
	c0,7.3,2.9,13.9,7.7,18.7c4.8,4.9,11.5,7.9,18.9,7.9c7.3,0,14-3,18.8-7.8c4.8-4.8,7.8-11.4,7.8-18.8v-8h18.1v8
	c0,6.6,2.4,12.6,6.3,17.2c4.9,5.7,12.1,9.3,20.2,9.3c7,0,13.4-2.7,18.1-7.1c5.2-4.9,8.5-11.8,8.5-19.4c0-7.6-3.2-14.5-8.3-19.3
	C112.6,75.8,106.2,73.1,99.1,73.1z M91.1,28.4c0-4.5,3.5-8,8-8s8,3.5,8,8s-3.5,8-8,8h-8V28.4z M35.9,99.6c0,4.5-3.5,8-8,8
	c-4.5,0-8-3.5-8-8c0-4.5,3.5-8,8-8h8V99.6z M27.9,36.4c-4.5,0-8-3.5-8-8c0-4.5,3.5-8,8-8s8,3.5,8,8v8H27.9z M72.5,73.1H54.5V55h18.1
	C72.5,55,72.5,73.1,72.5,73.1z M99.1,107.6c-4.5,0-8-3.5-8-8v-8h8c4.5,0,8,3.5,8,8C107.1,104.1,103.6,107.6,99.1,107.6z"/>
</svg>
