<?xml version="1.0" encoding="utf-8"?>
<!-- Generator: Adobe Illustrator 22.0.1, SVG Export Plug-In . SVG Version: 6.00 Build 0)  -->
<svg version="1.1" id="Livello_1" xmlns="http://www.w3.org/2000/svg" xmlns:xlink="http://www.w3.org/1999/xlink" x="0px" y="0px"
	 viewBox="0 0 128 128" style="enable-background:new 0 0 128 128;" xml:space="preserve">
<path d="M119.7,27.8c1.7,0,3.2-1.4,3.2-3.2v-5.5c0-1.7-1.4-3.2-3.2-3.2H78.5c-1.7,0-3.2,1.4-3.2,3.2v5.5c0,1.7,1.4,3.2,3.2,3.2
	H119.7z"/>
<path d="M36.9,16H10.1c-3.3,0-6,2.7-6,6s2.7,6,6,6h26.3l-0.3-0.5c0.3,0.5,0.2,0.5,0.8,0.5h-0.5l44.3,77.6c2.1,3.3,5.7,5.4,9.5,5.5
	H117c3.3,0,6-2.7,6-6s-2.7-6-6-6H90.7l0.3,0.5c-0.3-0.5-0.2-0.5-0.8-0.5h0.5L46.4,21.5C44.3,18.2,40.7,16.1,36.9,16z"/>
</svg>
